# xmcd
#
# Track frame offsets:
#	150
#	12104
#	21753
#	33585
#	43765
#	56065
#	66495
#	79467
#	89107
#	99664
#	109432
#	118076
#	132995
#	141808
#	150774
#	160725
#	172238
#	183354
#
# Disc length: 2600 seconds
#
# Revision: 0
# Processed by: cddbd v1.5.1PL0 Copyright (c) Steve Scherf et al.
# Submitted via: audiograbber 1.81.03
#
DISCID=020a2612
DTITLE=Bobby Lewis - Collectors Gold Series
DYEAR=2000
DGENRE=Blues
TTITLE0=Tossin' And Turnin'
TTITLE1=What A Walk
TTITLE2=Yes, Oh Yes It Did
TTITLE3=Lonely Teardrops
TTITLE4=I'm Tossin' and Turnin' Again
TTITLE5=Are You Ready?
TTITLE6=Boom A Chick Chick
TTITLE7=One Track Mind
TTITLE8=Cry No More
TTITLE9=Mamie In The Afternoon
TTITLE10=Head Over Heels
TTITLE11=Nothing But the Blues
TTITLE12=Turn Over A New Leaf
TTITLE13=A Man's Gotta Be A Man
TTITLE14=Let Me Be The One You Love
TTITLE15=Day By Day I Need Your Love
TTITLE16=Oh Yes, I Love You
TTITLE17=Tossin' And Turnin' (Stereo)
EXTD=
EXTT0=
EXTT1=
EXTT2=
EXTT3=
EXTT4=
EXTT5=
EXTT6=
EXTT7=
EXTT8=
EXTT9=
EXTT10=
EXTT11=
EXTT12=
EXTT13=
EXTT14=
EXTT15=
EXTT16=
EXTT17=
PLAYORDER=
